
<svg xmlns="http://www.w3.org/2000/svg" xmlns:xlink="http://www.w3.org/1999/xlink" >

  <!-- ViewBox and Graphic taken from "Icon-Trash.svg" -->
  <symbol id="Icon-Trash"  viewBox="0 0 10.106 12"  width="10.106" height="12">
   <!-- <path id="prefix__Path_26" d="M212.136 64h-3.76a.372.372 0 0 0-.376.376V65.5h4.512v-1.124a.372.372 0 0 0-.376-.376z" data-name="Path 26" transform="translate(-205.203 -62.495)" style="fill:none"/> -->
    <path id="prefix__Path_27" d="M73.685 33.714h-2.527v-.643A1.062 1.062 0 0 0 70.106 32H68a1.062 1.062 0 0 0-1.053 1.071v.643h-2.526a.429.429 0 0 0 0 .857h.447l.5 8.167A1.28 1.28 0 0 0 66.632 44h4.842a1.274 1.274 0 0 0 1.263-1.259l.5-8.17h.447a.429.429 0 0 0 0-.857zm-6.3 8.571h-.015a.425.425 0 0 1-.421-.413l-.211-6a.421.421 0 1 1 .842-.031l.211 6a.433.433 0 0 1-.113.308.418.418 0 0 1-.294.137zm2.09-.429a.421.421 0 1 1-.842 0v-6a.421.421 0 1 1 .842 0zm.842-8.143H67.79v-.643a.214.214 0 0 1 .061-.152.206.206 0 0 1 .15-.062h2.105a.206.206 0 0 1 .15.062.214.214 0 0 1 .061.152zm.842 8.158a.425.425 0 0 1-.421.413h-.015a.426.426 0 0 1-.406-.444l.211-6a.421.421 0 1 1 .842.031z" data-name="Path 27" transform="translate(-64 -32)" style="fill:#fff"/>
  </symbol>


</svg>